<svg xmlns="http://www.w3.org/2000/svg" viewBox="0 0 951.14 951.11"><defs><style>.cls-1{fill:#fff;}</style></defs><g id="Layer_2" data-name="Layer 2"><g id="Layer_1-2" data-name="Layer 1"><path class="cls-1" d="M475.57,0C213.35,0,0,213.34,0,475.56S213.35,951.11,475.57,951.11,951.14,737.78,951.14,475.56,737.79,0,475.57,0Zm0,930.18c-250.69,0-454.63-203.94-454.63-454.62S224.88,20.93,475.57,20.93,930.2,224.87,930.2,475.56,726.25,930.18,475.57,930.18Z"/><path class="cls-1" d="M296.89,614.44c-9.56,16.95-10.53,33.62-2.75,46.95,8,13.7,24.46,21.55,45.16,21.55H611.81c20.7,0,37.17-7.85,45.17-21.55,7.79-13.32,6.81-30-2.62-46.72L548.27,416.83V292.09h3.22a12,12,0,1,0,0-23.92H399.64a12,12,0,1,0,0,23.92h3.22V416.83Zm128.47-189c.09-.16.07-.34.15-.5a12.31,12.31,0,0,0,.72-2.35,11.9,11.9,0,0,0,.45-2.26c0-.2.11-.35.11-.55V292.09h97.55V419.82c0,.2.1.35.11.55a11.2,11.2,0,0,0,.46,2.26,11.62,11.62,0,0,0,.71,2.35c.07.16.06.34.14.5L633.4,626.2c5.2,9.23,6.24,17.45,2.93,23.12-3.61,6.17-12.54,9.7-24.52,9.7H339.3c-12,0-20.91-3.54-24.5-9.7-3.33-5.68-2.27-13.89,3.05-23.34Z"/><path class="cls-1" d="M461.59,619.49a11.94,11.94,0,0,0,7.59,2.71,10.59,10.59,0,0,0,1.48-.09,11.94,11.94,0,0,0,8.15-4.77l67.12-91.11A12,12,0,0,0,526.67,512L467,593l-44.6-36.65a12,12,0,1,0-15.19,18.48Z"/></g></g></svg>