<svg xmlns="http://www.w3.org/2000/svg" viewBox="0 0 951.14 951.11"><defs><style>.cls-1{fill:#fff;}</style></defs><g id="Layer_2" data-name="Layer 2"><g id="Layer_1-2" data-name="Layer 1"><path class="cls-1" d="M475.57,0C213.35,0,0,213.34,0,475.56S213.35,951.11,475.57,951.11,951.14,737.78,951.14,475.56,737.79,0,475.57,0Zm0,930.18c-250.69,0-454.63-203.94-454.63-454.62S224.88,20.93,475.57,20.93,930.2,224.87,930.2,475.56,726.25,930.18,475.57,930.18Z"/><path class="cls-1" d="M481,346C437.5,393.59,427.3,457.56,452,526.46c-14.79,33.35-22.18,65.16-26.72,93.92a261.87,261.87,0,0,0-14-26.13c15.11-42.83,6.4-85.11-24.36-116.34C339.72,430.07,255,420.15,165.57,452a10.47,10.47,0,0,0-2.22,18.61c30.9,20.26,46.09,42.59,62.18,66.24C239.7,557.72,254.36,579.25,280,598c17.78,13.06,46.37,20.71,72.84,20.71,16.24,0,31.6-3,43.26-9.23A245.36,245.36,0,0,1,420,667a10.23,10.23,0,0,0,3.52,5.85c.28.24.53.48.83.69a9.51,9.51,0,0,0,1.67.89,10,10,0,0,0,2.3.73c.23,0,.41.19.65.21s.6,0,.9,0,.31.08.47.08a10.31,10.31,0,0,0,2.73-.37c.29-.08.5-.29.78-.39l.17-.08a10.24,10.24,0,0,0,6.61-9.55c4.12-37.24,9.08-80.58,28.69-126.63a305.67,305.67,0,0,0,48.63,4.25c116.44,0,155.9-80.94,188.43-147.66,22.28-45.73,39.89-81.85,75.81-82.27a10.46,10.46,0,0,0,2.66-20.54C659.46,257.48,543.05,278.08,481,346ZM395.76,571.25c-44.26-58.72-106-91.5-147.88-100.46a10.47,10.47,0,0,0-4.38,20.48c40.26,8.6,100.46,41.37,141.37,100.54-21.11,10.19-67.37,7.82-92.52-10.64-22.7-16.66-35.73-35.8-49.51-56.06-13.57-19.93-27.51-40.41-51.05-59.58,87.44-25.48,149.91-3.64,180.14,27.06C393,514,401.17,542,395.76,571.25ZM687.54,385.9c-34.82,71.44-74.39,151.83-208.88,132.69,26.22-50.89,72.15-104.43,155.84-156.26a10.46,10.46,0,0,0-11-17.79c-81.9,50.72-129.47,104-157.93,154.87-13.51-53.48-2.91-102.3,30.93-139.33,50.89-55.69,143.38-76.09,247-56.08C719.29,320.76,703.72,352.69,687.54,385.9Z"/></g></g></svg>