<svg xmlns="http://www.w3.org/2000/svg" viewBox="0 0 951.12 951.11"><defs><style>.cls-1{fill:#fff;}</style></defs><g id="Layer_2" data-name="Layer 2"><g id="Layer_1-2" data-name="Layer 1"><path class="cls-1" d="M653.86,529.59h0c-.3-150.83-162.79-292.14-169.7-298.09a14,14,0,0,0-18.34,0c-6.9,6-168.85,147.92-168.56,298.73A179.58,179.58,0,0,0,349.7,657.33a176.28,176.28,0,0,0,125.87,52.5h.33C574.2,709.63,654,628.77,653.86,529.59Zm-178,152.15h-.27a148.47,148.47,0,0,1-106-44.21A151.57,151.57,0,0,1,325.36,530.2c-.24-118.37,115.83-237,149.69-269,34,31.9,150.48,149.9,150.71,268.46C625.91,613.34,558.67,681.58,475.84,681.74Z"/><path class="cls-1" d="M475.55,617.15c-47.11,0-85.51-39.06-85.6-87.08a14,14,0,0,0-14.05-14h0a14.06,14.06,0,0,0-14,14.08C362,593.6,413,645.23,475.55,645.23h.19a14,14,0,0,0,13.95-14A14.12,14.12,0,0,0,475.55,617.15Z"/><path class="cls-1" d="M475.56,0C213.34,0,0,213.34,0,475.56S213.34,951.11,475.56,951.11,951.12,737.78,951.12,475.56,737.78,0,475.56,0Zm0,930.18c-250.69,0-454.62-203.94-454.62-454.62S224.87,20.93,475.56,20.93,930.18,224.87,930.18,475.56,726.24,930.18,475.56,930.18Z"/></g></g></svg>