<svg xmlns="http://www.w3.org/2000/svg" viewBox="0 0 951.14 951.11"><defs><style>.cls-1{fill:#fff;}</style></defs><g id="Layer_2" data-name="Layer 2"><g id="Layer_1-2" data-name="Layer 1"><path class="cls-1" d="M475.57,0C213.35,0,0,213.34,0,475.56S213.35,951.11,475.57,951.11,951.14,737.78,951.14,475.56,737.79,0,475.57,0Zm0,930.18c-250.69,0-454.63-203.94-454.63-454.62S224.88,20.93,475.57,20.93,930.2,224.87,930.2,475.56,726.25,930.18,475.57,930.18Z"/><path class="cls-1" d="M202.42,773.05a12.51,12.51,0,0,1-12.23-12.75V190.81a12.24,12.24,0,1,1,24.46,0V760.3A12.51,12.51,0,0,1,202.42,773.05Z"/><path class="cls-1" d="M275.26,566.72a12.23,12.23,0,1,1,0-24.46H730.51a6,6,0,0,0,6-6V208.5a6,6,0,0,0-6-6H275.26a12.23,12.23,0,1,1,0-24.46H748.72A12.25,12.25,0,0,1,761,190.29v364.2a12.25,12.25,0,0,1-12.23,12.23Z"/><rect class="cls-1" x="281.24" y="250.9" width="24.47" height="24.47"/><rect class="cls-1" x="354.08" y="250.9" width="24.47" height="24.47"/><rect class="cls-1" x="426.92" y="250.9" width="24.47" height="24.47"/><rect class="cls-1" x="281.24" y="323.74" width="24.47" height="24.47"/><rect class="cls-1" x="354.08" y="323.74" width="24.47" height="24.47"/><rect class="cls-1" x="426.92" y="323.74" width="24.47" height="24.47"/><path class="cls-1" d="M275.26,421a12.23,12.23,0,1,1,0-24.46H675.88a12.23,12.23,0,0,1,0,24.46Z"/><path class="cls-1" d="M512,348.2a12.23,12.23,0,1,1,0-24.46H675.88a12.23,12.23,0,1,1,0,24.46Z"/><path class="cls-1" d="M512,275.36a12.23,12.23,0,1,1,0-24.46H675.88a12.23,12.23,0,1,1,0,24.46Z"/><path class="cls-1" d="M275.26,493.88a12.23,12.23,0,1,1,0-24.46H675.88a12.23,12.23,0,1,1,0,24.46Z"/></g></g></svg>