<?xml version="1.0" encoding="UTF-8"?>
<svg width="2000px" height="1556px" viewBox="0 0 2000 1556" xmlns="http://www.w3.org/2000/svg" xmlns:xlink="http://www.w3.org/1999/xlink" version="1.1">
 <!-- Generated by Pixelmator Pro 1.5.5 -->
 <path id="Path" d="M1960.59 1534.9 L1960.59 1538.9 1964.32 1538.9 C1965.02 1538.911 1965.711 1538.735 1966.32 1538.39 1966.814 1538.041 1967.096 1537.464 1967.07 1536.86 1967.096 1536.267 1966.812 1535.703 1966.32 1535.37 1965.718 1535.008 1965.022 1534.831 1964.32 1534.86 L1960.59 1534.86 Z M1964.36 1532.07 C1965.959 1531.972 1967.542 1532.431 1968.84 1533.37 1969.895 1534.234 1970.478 1535.548 1970.41 1536.91 1970.458 1538.08 1969.999 1539.214 1969.15 1540.02 1968.149 1540.891 1966.893 1541.413 1965.57 1541.51 L1970.57 1547.21 1966.72 1547.21 1962.12 1541.55 1960.63 1541.55 1960.63 1547.21 1957.41 1547.21 1957.41 1532.08 1964.41 1532.08 Z M1963.36 1552.43 C1965.049 1552.446 1966.722 1552.105 1968.27 1551.43 1969.763 1550.788 1971.12 1549.868 1972.27 1548.72 1973.422 1547.574 1974.343 1546.215 1974.98 1544.72 1976.292 1541.551 1976.292 1537.99 1974.98 1534.82 1974.333 1533.33 1973.414 1531.974 1972.27 1530.82 1971.119 1529.673 1969.762 1528.753 1968.27 1528.11 1966.713 1527.472 1965.043 1527.152 1963.36 1527.17 1961.648 1527.154 1959.949 1527.474 1958.36 1528.11 1956.834 1528.741 1955.445 1529.661 1954.27 1530.82 1950.654 1534.53 1949.603 1540.04 1951.6 1544.82 1952.209 1546.321 1953.117 1547.682 1954.27 1548.82 1955.446 1549.979 1956.835 1550.899 1958.36 1551.53 1959.94 1552.205 1961.642 1552.545 1963.36 1552.53 M1963.36 1523.53 C1967.755 1523.526 1971.975 1525.25 1975.11 1528.33 1976.621 1529.809 1977.825 1531.573 1978.65 1533.52 1980.377 1537.56 1980.377 1542.13 1978.65 1546.17 1977.805 1548.106 1976.604 1549.867 1975.11 1551.36 1973.576 1552.831 1971.791 1554.016 1969.84 1554.86 1967.791 1555.731 1965.586 1556.173 1963.36 1556.16 1961.108 1556.176 1958.876 1555.734 1956.8 1554.86 1954.826 1554.036 1953.025 1552.849 1951.49 1551.36 1949.996 1549.812 1948.811 1547.993 1948 1546 1946.273 1541.96 1946.273 1537.39 1948 1533.35 1948.825 1531.403 1950.029 1529.639 1951.54 1528.16 1953.054 1526.646 1954.861 1525.455 1956.85 1524.66 1958.926 1523.786 1961.158 1523.344 1963.41 1523.36 M432.16 1465.1 C432.16 1436.25 451.06 1412.55 481.95 1412.55 511.47 1412.55 531.39 1435.23 531.39 1465.1 531.39 1494.97 511.47 1517.65 481.95 1517.65 451.06 1517.65 432.16 1493.95 432.16 1465.1 M565.04 1465.1 L565.04 1383 529.35 1383 529.35 1403 C518.03 1388.22 500.86 1378.95 477.51 1378.95 431.51 1378.95 395.41 1415.03 395.41 1465.14 395.41 1515.25 431.49 1551.33 477.51 1551.33 500.85 1551.33 518.03 1542.05 529.35 1527.28 L529.35 1547.21 565 1547.21 565 1465.1 Z M1770.96 1465.1 C1770.96 1436.25 1789.86 1412.55 1820.76 1412.55 1850.31 1412.55 1870.2 1435.23 1870.2 1465.1 1870.2 1494.97 1850.31 1517.65 1820.76 1517.65 1789.87 1517.65 1770.96 1493.95 1770.96 1465.1 M1903.88 1465.1 L1903.88 1317.1 1868.16 1317.1 1868.16 1403 C1856.84 1388.22 1839.67 1378.95 1816.32 1378.95 1770.32 1378.95 1734.22 1415.03 1734.22 1465.14 1734.22 1515.25 1770.3 1551.33 1816.32 1551.33 1839.67 1551.33 1856.84 1542.05 1868.16 1527.28 L1868.16 1547.21 1903.88 1547.21 Z M1008 1410.86 C1031 1410.86 1045.77 1425.28 1049.54 1450.67 L964.38 1450.67 C968.19 1426.97 982.58 1410.86 1008.01 1410.86 M1008.72 1378.86 C960.62 1378.86 926.97 1413.86 926.97 1465.05 926.97 1517.24 961.97 1551.24 1011.11 1551.24 1035.83 1551.24 1058.47 1545.07 1078.39 1528.24 L1060.9 1501.79 C1047.14 1512.79 1029.62 1518.96 1013.15 1518.96 990.15 1518.96 969.21 1508.31 964.06 1478.76 L1085.93 1478.76 C1086.28 1474.32 1086.64 1469.84 1086.64 1465.04 1086.28 1413.87 1054.64 1378.85 1008.7 1378.85 M1439.6 1465.04 C1439.6 1436.19 1458.5 1412.49 1489.39 1412.49 1518.91 1412.49 1538.83 1435.17 1538.83 1465.04 1538.83 1494.91 1518.91 1517.59 1489.39 1517.59 1458.5 1517.59 1439.59 1493.89 1439.59 1465.04 M1572.47 1465.04 L1572.47 1383 1536.8 1383 1536.8 1403 C1525.44 1388.22 1508.31 1378.95 1484.96 1378.95 1438.96 1378.95 1402.86 1415.03 1402.86 1465.14 1402.86 1515.25 1438.94 1551.33 1484.96 1551.33 1508.31 1551.33 1525.44 1542.05 1536.8 1527.28 L1536.8 1547.21 1572.48 1547.21 1572.48 1465.1 Z M1238.05 1465.04 C1238.05 1514.83 1272.71 1551.23 1325.61 1551.23 1350.33 1551.23 1366.8 1545.73 1384.61 1531.66 L1367.47 1502.81 C1354.07 1512.44 1340 1517.59 1324.47 1517.59 1295.98 1517.24 1275.03 1496.64 1275.03 1465.04 1275.03 1433.44 1295.98 1412.85 1324.47 1412.49 1339.96 1412.49 1354.03 1417.64 1367.47 1427.27 L1384.61 1398.42 C1366.77 1384.35 1350.3 1378.85 1325.61 1378.85 1272.71 1378.85 1238.05 1415.24 1238.05 1465.04 M1698.15 1378.85 C1677.56 1378.85 1664.15 1388.48 1654.88 1402.9 L1654.88 1383 1619.51 1383 1619.51 1547.12 1655.24 1547.12 1655.24 1455.12 C1655.24 1427.96 1666.91 1412.87 1690.24 1412.87 1697.88 1412.76 1705.466 1414.164 1712.56 1417 L1723.56 1383.36 C1715.66 1380.25 1705.36 1378.88 1698.13 1378.88 M741.49 1396.05 C724.32 1384.73 700.66 1378.88 674.56 1378.88 632.98 1378.88 606.21 1398.81 606.21 1431.42 606.21 1458.18 626.14 1474.69 662.84 1479.84 L679.7 1482.24 C699.27 1484.99 708.51 1490.14 708.51 1499.41 708.51 1512.1 695.51 1519.34 671.1 1519.34 646.38 1519.34 628.54 1511.44 616.51 1502.17 L599.74 1530 C619.31 1544.42 644.03 1551.3 670.8 1551.3 718.2 1551.3 745.67 1528.98 745.67 1497.73 745.67 1468.88 724.05 1453.79 688.33 1448.64 L671.51 1446.2 C656.06 1444.2 643.68 1441.09 643.68 1430.09 643.68 1418.09 655.35 1410.87 674.93 1410.87 695.88 1410.87 716.16 1418.77 726.1 1424.94 L741.55 1396.09 Z M1202 1378.91 C1181.41 1378.91 1168 1388.54 1158.77 1402.96 L1158.77 1383 1123.4 1383 1123.4 1547.12 1159.09 1547.12 1159.09 1455.12 C1159.09 1427.96 1170.76 1412.87 1194.09 1412.87 1201.73 1412.76 1209.316 1414.164 1216.41 1417 L1227.41 1383.36 C1219.51 1380.25 1209.21 1378.88 1201.98 1378.88 M897.44 1383 L839.08 1383 839.08 1333.21 803 1333.21 803 1383 769.71 1383 769.71 1415.62 803 1415.62 803 1490.49 C803 1528.57 817.78 1551.25 860 1551.25 875.49 1551.25 893.33 1546.45 904.65 1538.56 L894.34 1508 C883.69 1514.17 872.02 1517.28 862.74 1517.28 844.9 1517.28 839.08 1506.28 839.08 1489.81 L839.08 1415.65 897.44 1415.65 Z M363.85 1547.16 L363.85 1444.16 C363.85 1405.37 339.13 1379.27 299.28 1378.92 278.33 1378.57 256.72 1385.09 241.59 1408.12 230.27 1389.92 212.43 1378.92 187.35 1378.92 169.82 1378.92 152.69 1384.07 139.28 1403.29 L139.28 1383 103.56 1383 103.56 1547.12 139.56 1547.12 139.56 1456.12 C139.56 1427.63 155.36 1412.49 179.76 1412.49 203.46 1412.49 215.45 1427.94 215.45 1455.76 L215.45 1547.1 251.53 1547.1 251.53 1456.1 C251.53 1427.61 268 1412.47 291.69 1412.47 316.06 1412.47 327.69 1427.92 327.69 1455.74 L327.69 1547.08 Z" fill="#ebebeb" fill-opacity="1" stroke="none"/>
 <path id="Path-1" d="M1980.94 1001.22 L1980.94 977.22 1974.69 977.22 1967.46 993.69 1960.27 977.22 1954 977.22 1954 1001.22 1958.44 1001.22 1958.44 983.14 1965.2 998.74 1969.8 998.74 1976.56 983.1 1976.56 1001.22 1980.96 1001.22 Z M1941.29 1001.22 L1941.29 981.33 1949.29 981.33 1949.29 977.28 1928.85 977.28 1928.85 981.33 1936.85 981.33 1936.85 1001.22 1941.25 1001.22 Z" fill="#ffffff" fill-opacity="1" stroke="none"/>
 <path id="Path-2" d="M1270.57 1104.15 L729.71 1104.15 729.71 132.15 1270.58 132.15 Z" fill="#c0c0c0" fill-opacity="1" stroke="none"/>
 <path id="Path-3" d="M764 618.17 C764 421 856.32 245.36 1000.08 132.17 891.261 46.365 756.669 -0.205 618.09 0 276.72 0 0 276.76 0 618.17 0 959.58 276.72 1236.34 618.09 1236.34 756.672 1236.547 891.268 1189.977 1000.09 1104.17 856.34 991 764 815.35 764 618.17" fill="#d5d7d7" fill-opacity="1" stroke="none"/>
 <path id="Path-4" d="M2000.25 618.17 C2000.25 959.58 1723.53 1236.34 1382.16 1236.34 1243.563 1236.543 1108.952 1189.975 1000.11 1104.17 1143.91 990.98 1236.23 815.35 1236.23 618.17 1236.23 420.99 1143.91 245.36 1000.11 132.17 1108.949 46.367 1243.556 -0.201 1382.15 0 1723.52 0 2000.24 276.76 2000.24 618.17" fill="#ebebeb" fill-opacity="1" stroke="none"/>
</svg>
