<svg xmlns="http://www.w3.org/2000/svg" viewBox="0 0 471.9 384"><defs><style>.cls-1{fill:#fff;}</style></defs><g id="Layer_2" data-name="Layer 2"><g id="Layer_1-2" data-name="Layer 1"><path class="cls-1" d="M471.9,45.5a195.74,195.74,0,0,1-55.6,15.3A97.16,97.16,0,0,0,458.9,7.2a192.38,192.38,0,0,1-61.5,23.5A96.79,96.79,0,0,0,229.9,96.9a94.79,94.79,0,0,0,2.5,22.1A274.37,274.37,0,0,1,32.8,17.7a97.09,97.09,0,0,0,30,129.4A94.49,94.49,0,0,1,18.9,135v1.2a96.9,96.9,0,0,0,77.7,95,97.46,97.46,0,0,1-25.5,3.4,91.34,91.34,0,0,1-18.2-1.8,97,97,0,0,0,90.5,67.3A194.11,194.11,0,0,1,23.1,341.6,196.25,196.25,0,0,1,0,340.2,271.2,271.2,0,0,0,148.3,384c178.2,0,275.6-147.7,275.6-275.8,0-4.2-.1-8.4-.3-12.5A198.72,198.72,0,0,0,471.9,45.5Z"/></g></g></svg>