<svg xmlns="http://www.w3.org/2000/svg" viewBox="0 0 46.3 60.3"><defs><style>.cls-1{fill:#fff;stroke:#fff;stroke-miterlimit:10;stroke-width:0.3px;}</style></defs><g id="Layer_2" data-name="Layer 2"><g id="Capa_1" data-name="Capa 1"><path class="cls-1" d="M41.16,43l-9.55-4.78a2.62,2.62,0,0,1-1.46-2.36V32.52c.23-.28.47-.6.72-1a22.8,22.8,0,0,0,2.95-5.8,4,4,0,0,0,2.33-3.62v-4a4,4,0,0,0-1-2.63V10.21a8.94,8.94,0,0,0-2.09-6.53C31,1.34,27.67.15,23.15.15S15.3,1.34,13.24,3.68a8.94,8.94,0,0,0-2.09,6.53v5.31a4,4,0,0,0-1,2.63v4a4,4,0,0,0,1.5,3.11,20.91,20.91,0,0,0,3.5,7.24v3.3a2.64,2.64,0,0,1-1.38,2.32L4.85,43a9,9,0,0,0-4.7,7.92v3.24c0,4.75,15.05,6,23,6s23-1.25,23-6v-3A9,9,0,0,0,41.16,43Zm3,11.11c0,1.36-7.41,4-21,4s-21-2.64-21-4V50.91a7,7,0,0,1,3.66-6.16l8.92-4.87a4.65,4.65,0,0,0,2.42-4.08v-4l-.23-.28a18.76,18.76,0,0,1-3.41-7.07l-.09-.39-.34-.22a2,2,0,0,1-.93-1.68v-4a2,2,0,0,1,.67-1.48l.33-.29V10a7,7,0,0,1,1.61-5c1.65-1.89,4.48-2.85,8.4-2.85s6.73,1,8.39,2.83a7.08,7.08,0,0,1,1.62,5v6.36l.33.3a2,2,0,0,1,.67,1.47v4a2,2,0,0,1-1.42,1.9l-.5.15-.16.5a21,21,0,0,1-2.83,5.71c-.3.42-.59.79-.84,1.08l-.25.28V35.9a4.6,4.6,0,0,0,2.57,4.15l9.55,4.78a7,7,0,0,1,3.88,6.28Z"/></g></g></svg>